<svg width="1690" height="431" viewBox="0 0 1690 431" fill="none" xmlns="http://www.w3.org/2000/svg">
<rect width="1690" height="431" fill="white"/>
<rect x="304" y="101" width="355" height="80" rx="20" fill="#FE88C6"/>
<rect x="304" y="222" width="1184" height="80" rx="20" fill="#7AE2E2"/>
<path d="M126.31 131.06H133.66C135.72 131.06 137.29 131.56 138.37 132.56C139.47 133.56 140.02 134.92 140.02 136.64C140.02 137.84 139.72 138.8 139.12 139.52C138.54 140.22 137.7 140.73 136.6 141.05V141.23C137.9 141.55 138.9 142.11 139.6 142.91C140.32 143.71 140.68 144.82 140.68 146.24C140.68 148 140.12 149.4 139 150.44C137.9 151.48 136.35 152 134.35 152H126.31V131.06ZM132.97 148.85C134.05 148.85 134.84 148.67 135.34 148.31C135.84 147.95 136.09 147.29 136.09 146.33V145.46C136.09 144.5 135.84 143.84 135.34 143.48C134.84 143.12 134.05 142.94 132.97 142.94H130.69V148.85H132.97ZM132.4 139.94C133.46 139.94 134.23 139.77 134.71 139.43C135.19 139.07 135.43 138.43 135.43 137.51V136.61C135.43 135.69 135.19 135.06 134.71 134.72C134.23 134.38 133.46 134.21 132.4 134.21H130.69V139.94H132.4ZM153.598 149.18H153.418C153.078 150.06 152.538 150.81 151.798 151.43C151.078 152.05 150.098 152.36 148.858 152.36C148.118 152.36 147.438 152.24 146.818 152C146.198 151.74 145.668 151.36 145.228 150.86C144.788 150.36 144.438 149.75 144.178 149.03C143.938 148.31 143.818 147.48 143.818 146.54V136.52H148.258V145.94C148.258 147.94 149.128 148.94 150.868 148.94C151.208 148.94 151.538 148.9 151.858 148.82C152.198 148.72 152.488 148.58 152.728 148.4C152.988 148.2 153.198 147.96 153.358 147.68C153.518 147.4 153.598 147.07 153.598 146.69V136.52H158.038V152H153.598V149.18ZM161.927 152V136.52H166.367V139.34H166.547C166.727 138.9 166.947 138.49 167.207 138.11C167.467 137.73 167.777 137.4 168.137 137.12C168.517 136.82 168.947 136.59 169.427 136.43C169.927 136.25 170.487 136.16 171.107 136.16C171.847 136.16 172.527 136.29 173.147 136.55C173.767 136.79 174.297 137.16 174.737 137.66C175.177 138.16 175.517 138.77 175.757 139.49C176.017 140.21 176.147 141.04 176.147 141.98V152H171.707V142.58C171.707 140.58 170.837 139.58 169.097 139.58C168.757 139.58 168.417 139.63 168.077 139.73C167.757 139.81 167.467 139.95 167.207 140.15C166.947 140.33 166.737 140.56 166.577 140.84C166.437 141.12 166.367 141.45 166.367 141.83V152H161.927ZM180.275 131.06H187.625C189.685 131.06 191.255 131.56 192.335 132.56C193.435 133.56 193.985 134.92 193.985 136.64C193.985 137.84 193.685 138.8 193.085 139.52C192.505 140.22 191.665 140.73 190.565 141.05V141.23C191.865 141.55 192.865 142.11 193.565 142.91C194.285 143.71 194.645 144.82 194.645 146.24C194.645 148 194.085 149.4 192.965 150.44C191.865 151.48 190.315 152 188.315 152H180.275V131.06ZM186.935 148.85C188.015 148.85 188.805 148.67 189.305 148.31C189.805 147.95 190.055 147.29 190.055 146.33V145.46C190.055 144.5 189.805 143.84 189.305 143.48C188.805 143.12 188.015 142.94 186.935 142.94H184.655V148.85H186.935ZM186.365 139.94C187.425 139.94 188.195 139.77 188.675 139.43C189.155 139.07 189.395 138.43 189.395 137.51V136.61C189.395 135.69 189.155 135.06 188.675 134.72C188.195 134.38 187.425 134.21 186.365 134.21H184.655V139.94H186.365ZM207.563 149.18H207.383C207.043 150.06 206.503 150.81 205.763 151.43C205.043 152.05 204.063 152.36 202.823 152.36C202.083 152.36 201.403 152.24 200.783 152C200.163 151.74 199.633 151.36 199.193 150.86C198.753 150.36 198.403 149.75 198.143 149.03C197.903 148.31 197.783 147.48 197.783 146.54V136.52H202.223V145.94C202.223 147.94 203.093 148.94 204.833 148.94C205.173 148.94 205.503 148.9 205.823 148.82C206.163 148.72 206.453 148.58 206.693 148.4C206.953 148.2 207.163 147.96 207.323 147.68C207.483 147.4 207.563 147.07 207.563 146.69V136.52H212.003V152H207.563V149.18ZM222.761 152.36C221.041 152.36 219.541 152.1 218.261 151.58C217.001 151.06 216.051 150.35 215.411 149.45L217.901 147.14C218.501 147.8 219.201 148.32 220.001 148.7C220.821 149.06 221.751 149.24 222.791 149.24C223.671 149.24 224.361 149.11 224.861 148.85C225.361 148.57 225.611 148.15 225.611 147.59C225.611 147.15 225.441 146.85 225.101 146.69C224.761 146.51 224.291 146.37 223.691 146.27L221.201 145.88C220.501 145.78 219.851 145.63 219.251 145.43C218.651 145.21 218.131 144.92 217.691 144.56C217.251 144.2 216.901 143.76 216.641 143.24C216.381 142.72 216.251 142.09 216.251 141.35C216.251 139.73 216.871 138.46 218.111 137.54C219.351 136.62 221.091 136.16 223.331 136.16C224.851 136.16 226.141 136.37 227.201 136.79C228.281 137.19 229.141 137.77 229.781 138.53L227.561 141.05C227.101 140.55 226.511 140.13 225.791 139.79C225.071 139.45 224.201 139.28 223.181 139.28C221.461 139.28 220.601 139.8 220.601 140.84C220.601 141.3 220.771 141.62 221.111 141.8C221.451 141.96 221.921 142.09 222.521 142.19L224.981 142.58C225.681 142.68 226.331 142.84 226.931 143.06C227.531 143.26 228.051 143.54 228.491 143.9C228.951 144.26 229.311 144.7 229.571 145.22C229.831 145.74 229.961 146.37 229.961 147.11C229.961 148.73 229.331 150.01 228.071 150.95C226.831 151.89 225.061 152.36 222.761 152.36ZM242.13 152C240.53 152 239.34 151.58 238.56 150.74C237.78 149.9 237.39 148.83 237.39 147.53V139.97H233.19V136.52H235.92C236.58 136.52 237.05 136.39 237.33 136.13C237.61 135.87 237.75 135.39 237.75 134.69V131.06H241.83V136.52H247.86V139.97H241.83V148.55H247.86V152H242.13ZM259.338 152.36C256.738 152.36 254.768 151.64 253.428 150.2C252.088 148.76 251.418 146.8 251.418 144.32C251.418 143.06 251.588 141.93 251.928 140.93C252.288 139.91 252.788 139.05 253.428 138.35C254.088 137.63 254.878 137.09 255.798 136.73C256.738 136.35 257.788 136.16 258.948 136.16C260.108 136.16 261.148 136.35 262.068 136.73C262.988 137.09 263.768 137.61 264.408 138.29C265.048 138.97 265.538 139.8 265.878 140.78C266.238 141.74 266.418 142.82 266.418 144.02V145.34H255.828V145.61C255.828 146.61 256.138 147.42 256.758 148.04C257.378 148.64 258.288 148.94 259.488 148.94C260.408 148.94 261.198 148.77 261.858 148.43C262.518 148.07 263.088 147.6 263.568 147.02L265.968 149.63C265.368 150.37 264.528 151.01 263.448 151.55C262.368 152.09 260.998 152.36 259.338 152.36ZM258.978 139.34C258.018 139.34 257.248 139.64 256.668 140.24C256.108 140.82 255.828 141.61 255.828 142.61V142.85H262.068V142.61C262.068 141.59 261.788 140.79 261.228 140.21C260.688 139.63 259.938 139.34 258.978 139.34ZM270.126 148.55H273.696V139.97H270.126V136.52H278.136V140.9H278.346C278.486 140.34 278.676 139.8 278.916 139.28C279.176 138.74 279.496 138.27 279.876 137.87C280.276 137.45 280.756 137.12 281.316 136.88C281.876 136.64 282.536 136.52 283.296 136.52H284.766V140.6H281.466C280.366 140.6 279.536 140.93 278.976 141.59C278.416 142.23 278.136 143.02 278.136 143.96V148.55H283.236V152H270.126V148.55Z" fill="black"/>
<path opacity="0.7" d="M689.259 152V150.082L696.46 142.199C697.305 141.276 698.001 140.473 698.548 139.791C699.095 139.102 699.5 138.456 699.763 137.852C700.033 137.241 700.168 136.602 700.168 135.935C700.168 135.168 699.983 134.504 699.614 133.942C699.251 133.381 698.754 132.948 698.122 132.643C697.49 132.337 696.78 132.185 695.991 132.185C695.153 132.185 694.422 132.359 693.797 132.707C693.179 133.048 692.7 133.527 692.359 134.145C692.025 134.763 691.858 135.487 691.858 136.318H689.344C689.344 135.04 689.638 133.918 690.228 132.952C690.817 131.986 691.62 131.233 692.636 130.693C693.658 130.153 694.805 129.884 696.077 129.884C697.355 129.884 698.488 130.153 699.475 130.693C700.462 131.233 701.237 131.961 701.798 132.877C702.359 133.793 702.639 134.812 702.639 135.935C702.639 136.737 702.494 137.522 702.202 138.289C701.918 139.049 701.421 139.898 700.711 140.835C700.008 141.766 699.031 142.902 697.781 144.244L692.881 149.486V149.656H703.023V152H689.259ZM709.298 152.17C708.772 152.17 708.321 151.982 707.945 151.606C707.568 151.229 707.38 150.778 707.38 150.253C707.38 149.727 707.568 149.276 707.945 148.9C708.321 148.523 708.772 148.335 709.298 148.335C709.823 148.335 710.274 148.523 710.651 148.9C711.027 149.276 711.215 149.727 711.215 150.253C711.215 150.601 711.126 150.92 710.949 151.212C710.778 151.503 710.548 151.737 710.256 151.915C709.972 152.085 709.653 152.17 709.298 152.17ZM722.167 152.298C721.272 152.284 720.377 152.114 719.482 151.787C718.587 151.46 717.771 150.91 717.032 150.136C716.293 149.354 715.7 148.3 715.253 146.972C714.805 145.636 714.582 143.96 714.582 141.943C714.582 140.011 714.763 138.3 715.125 136.808C715.487 135.31 716.013 134.049 716.702 133.026C717.391 131.996 718.222 131.215 719.195 130.683C720.175 130.15 721.279 129.884 722.508 129.884C723.729 129.884 724.816 130.129 725.768 130.619C726.727 131.102 727.508 131.776 728.112 132.643C728.715 133.509 729.106 134.507 729.283 135.636H726.684C726.442 134.656 725.974 133.843 725.278 133.197C724.582 132.55 723.658 132.227 722.508 132.227C720.817 132.227 719.486 132.962 718.513 134.433C717.547 135.903 717.06 137.966 717.053 140.622H717.224C717.621 140.018 718.094 139.504 718.641 139.077C719.195 138.644 719.805 138.31 720.473 138.076C721.141 137.842 721.847 137.724 722.593 137.724C723.843 137.724 724.987 138.037 726.023 138.662C727.06 139.28 727.891 140.136 728.516 141.229C729.141 142.316 729.454 143.562 729.454 144.969C729.454 146.318 729.152 147.554 728.548 148.676C727.945 149.791 727.096 150.679 726.002 151.339C724.915 151.993 723.637 152.312 722.167 152.298ZM722.167 149.955C723.062 149.955 723.864 149.731 724.575 149.283C725.292 148.836 725.857 148.236 726.268 147.483C726.688 146.73 726.897 145.892 726.897 144.969C726.897 144.067 726.695 143.246 726.29 142.508C725.892 141.762 725.342 141.169 724.638 140.729C723.942 140.288 723.147 140.068 722.252 140.068C721.577 140.068 720.949 140.203 720.366 140.473C719.784 140.736 719.273 141.098 718.832 141.56C718.399 142.021 718.058 142.55 717.81 143.147C717.561 143.737 717.437 144.358 717.437 145.011C717.437 145.878 717.639 146.687 718.044 147.44C718.456 148.193 719.017 148.8 719.727 149.262C720.445 149.724 721.258 149.955 722.167 149.955ZM745.277 139.301L743.018 139.94C742.876 139.564 742.667 139.198 742.39 138.843C742.12 138.481 741.751 138.183 741.282 137.948C740.813 137.714 740.213 137.597 739.481 137.597C738.48 137.597 737.645 137.827 736.978 138.289C736.317 138.744 735.987 139.322 735.987 140.026C735.987 140.651 736.214 141.144 736.669 141.506C737.123 141.869 737.834 142.17 738.8 142.412L741.229 143.009C742.692 143.364 743.782 143.907 744.499 144.638C745.216 145.363 745.575 146.297 745.575 147.44C745.575 148.378 745.305 149.216 744.765 149.955C744.233 150.693 743.487 151.276 742.528 151.702C741.569 152.128 740.454 152.341 739.183 152.341C737.514 152.341 736.133 151.979 735.039 151.254C733.945 150.53 733.253 149.472 732.961 148.08L735.348 147.483C735.575 148.364 736.005 149.024 736.637 149.464C737.276 149.905 738.111 150.125 739.14 150.125C740.312 150.125 741.243 149.876 741.932 149.379C742.628 148.875 742.976 148.271 742.976 147.568C742.976 147 742.777 146.524 742.379 146.141C741.981 145.75 741.371 145.459 740.547 145.267L737.819 144.628C736.321 144.273 735.22 143.722 734.517 142.977C733.821 142.224 733.473 141.283 733.473 140.153C733.473 139.23 733.732 138.413 734.251 137.703C734.776 136.993 735.49 136.435 736.392 136.031C737.301 135.626 738.331 135.423 739.481 135.423C741.101 135.423 742.372 135.778 743.295 136.489C744.226 137.199 744.886 138.136 745.277 139.301Z" fill="black"/>
<path opacity="0.7" d="M1528.25 276.298C1526.78 276.298 1525.49 276.039 1524.37 275.521C1523.25 274.995 1522.38 274.274 1521.76 273.358C1521.13 272.435 1520.83 271.384 1520.83 270.205C1520.83 269.281 1521.01 268.429 1521.38 267.648C1521.75 266.859 1522.25 266.202 1522.89 265.677C1523.53 265.144 1524.26 264.807 1525.05 264.665V264.537C1524.01 264.267 1523.18 263.681 1522.56 262.779C1521.94 261.87 1521.63 260.837 1521.64 259.679C1521.63 258.571 1521.92 257.58 1522.48 256.707C1523.05 255.833 1523.83 255.144 1524.83 254.64C1525.83 254.136 1526.97 253.884 1528.25 253.884C1529.51 253.884 1530.64 254.136 1531.63 254.64C1532.63 255.144 1533.41 255.833 1533.98 256.707C1534.55 257.58 1534.85 258.571 1534.85 259.679C1534.85 260.837 1534.53 261.87 1533.9 262.779C1533.29 263.681 1532.47 264.267 1531.44 264.537V264.665C1532.23 264.807 1532.94 265.144 1533.57 265.677C1534.21 266.202 1534.71 266.859 1535.09 267.648C1535.46 268.429 1535.65 269.281 1535.66 270.205C1535.65 271.384 1535.34 272.435 1534.7 273.358C1534.08 274.274 1533.21 274.995 1532.09 275.521C1530.99 276.039 1529.7 276.298 1528.25 276.298ZM1528.25 273.955C1529.23 273.955 1530.09 273.795 1530.8 273.475C1531.52 273.156 1532.08 272.705 1532.47 272.122C1532.86 271.54 1533.06 270.858 1533.06 270.077C1533.06 269.253 1532.84 268.525 1532.42 267.893C1532 267.261 1531.43 266.763 1530.71 266.401C1529.99 266.039 1529.17 265.858 1528.25 265.858C1527.32 265.858 1526.49 266.039 1525.75 266.401C1525.03 266.763 1524.46 267.261 1524.04 267.893C1523.63 268.525 1523.42 269.253 1523.43 270.077C1523.42 270.858 1523.61 271.54 1524 272.122C1524.39 272.705 1524.94 273.156 1525.67 273.475C1526.39 273.795 1527.25 273.955 1528.25 273.955ZM1528.25 263.599C1529.03 263.599 1529.72 263.443 1530.32 263.131C1530.94 262.818 1531.41 262.381 1531.76 261.82C1532.11 261.259 1532.29 260.602 1532.3 259.849C1532.29 259.111 1532.11 258.468 1531.77 257.921C1531.43 257.367 1530.96 256.941 1530.36 256.643C1529.75 256.337 1529.05 256.185 1528.25 256.185C1527.43 256.185 1526.72 256.337 1526.11 256.643C1525.5 256.941 1525.02 257.367 1524.69 257.921C1524.36 258.468 1524.19 259.111 1524.2 259.849C1524.19 260.602 1524.36 261.259 1524.7 261.82C1525.05 262.381 1525.53 262.818 1526.14 263.131C1526.75 263.443 1527.45 263.599 1528.25 263.599ZM1540.95 276.17C1540.42 276.17 1539.97 275.982 1539.59 275.606C1539.22 275.229 1539.03 274.778 1539.03 274.253C1539.03 273.727 1539.22 273.276 1539.59 272.9C1539.97 272.523 1540.42 272.335 1540.95 272.335C1541.47 272.335 1541.92 272.523 1542.3 272.9C1542.68 273.276 1542.86 273.727 1542.86 274.253C1542.86 274.601 1542.77 274.92 1542.6 275.212C1542.43 275.503 1542.2 275.737 1541.9 275.915C1541.62 276.085 1541.3 276.17 1540.95 276.17ZM1553.71 276.298C1552.46 276.298 1551.34 276.05 1550.33 275.553C1549.33 275.055 1548.53 274.374 1547.93 273.507C1547.32 272.641 1546.99 271.653 1546.94 270.545H1549.49C1549.59 271.533 1550.04 272.349 1550.84 272.996C1551.64 273.635 1552.6 273.955 1553.71 273.955C1554.61 273.955 1555.4 273.745 1556.1 273.326C1556.8 272.907 1557.35 272.332 1557.75 271.6C1558.15 270.862 1558.36 270.027 1558.36 269.097C1558.36 268.145 1558.15 267.296 1557.73 266.55C1557.32 265.798 1556.75 265.205 1556.02 264.771C1555.3 264.338 1554.47 264.118 1553.54 264.111C1552.87 264.104 1552.19 264.207 1551.48 264.42C1550.78 264.626 1550.2 264.892 1549.75 265.219L1547.28 264.92L1548.6 254.182H1559.93V256.526H1550.81L1550.05 262.96H1550.17C1550.62 262.605 1551.18 262.31 1551.86 262.076C1552.53 261.842 1553.24 261.724 1553.97 261.724C1555.3 261.724 1556.49 262.044 1557.54 262.683C1558.59 263.315 1559.41 264.182 1560.01 265.283C1560.61 266.384 1560.91 267.641 1560.91 269.054C1560.91 270.446 1560.6 271.689 1559.98 272.783C1559.36 273.869 1558.51 274.729 1557.42 275.361C1556.33 275.986 1555.1 276.298 1553.71 276.298ZM1576.78 263.301L1574.52 263.94C1574.38 263.564 1574.17 263.198 1573.89 262.843C1573.62 262.481 1573.25 262.183 1572.78 261.948C1572.31 261.714 1571.71 261.597 1570.98 261.597C1569.98 261.597 1569.15 261.827 1568.48 262.289C1567.82 262.744 1567.49 263.322 1567.49 264.026C1567.49 264.651 1567.72 265.144 1568.17 265.506C1568.63 265.869 1569.34 266.17 1570.3 266.412L1572.73 267.009C1574.19 267.364 1575.28 267.907 1576 268.638C1576.72 269.363 1577.08 270.297 1577.08 271.44C1577.08 272.378 1576.81 273.216 1576.27 273.955C1575.73 274.693 1574.99 275.276 1574.03 275.702C1573.07 276.128 1571.96 276.341 1570.69 276.341C1569.02 276.341 1567.63 275.979 1566.54 275.254C1565.45 274.53 1564.75 273.472 1564.46 272.08L1566.85 271.483C1567.08 272.364 1567.51 273.024 1568.14 273.464C1568.78 273.905 1569.61 274.125 1570.64 274.125C1571.81 274.125 1572.74 273.876 1573.43 273.379C1574.13 272.875 1574.48 272.271 1574.48 271.568C1574.48 271 1574.28 270.524 1573.88 270.141C1573.48 269.75 1572.87 269.459 1572.05 269.267L1569.32 268.628C1567.82 268.273 1566.72 267.722 1566.02 266.977C1565.32 266.224 1564.97 265.283 1564.97 264.153C1564.97 263.23 1565.23 262.413 1565.75 261.703C1566.28 260.993 1566.99 260.435 1567.89 260.031C1568.8 259.626 1569.83 259.423 1570.98 259.423C1572.6 259.423 1573.87 259.778 1574.8 260.489C1575.73 261.199 1576.39 262.136 1576.78 263.301Z" fill="black"/>
<path d="M216.7 272V251.06H229.9V253.25H219.22V260.3H229V262.49H219.22V272H216.7ZM234.688 272V251.06H247.888V253.25H237.208V260.3H246.988V262.49H237.208V272H234.688ZM254.897 251.06V263.63C254.897 264.65 254.927 265.56 254.987 266.36C255.047 267.16 255.207 267.85 255.467 268.43C255.727 268.99 256.127 269.42 256.667 269.72C257.227 270.02 257.997 270.17 258.977 270.17C259.957 270.17 260.717 270.02 261.257 269.72C261.817 269.42 262.227 268.99 262.487 268.43C262.747 267.85 262.907 267.16 262.967 266.36C263.027 265.56 263.057 264.65 263.057 263.63V251.06H265.577V263.03C265.577 264.59 265.497 265.95 265.337 267.11C265.197 268.27 264.887 269.24 264.407 270.02C263.947 270.8 263.277 271.39 262.397 271.79C261.537 272.17 260.397 272.36 258.977 272.36C257.557 272.36 256.407 272.17 255.527 271.79C254.667 271.39 253.997 270.8 253.517 270.02C253.057 269.24 252.747 268.27 252.587 267.11C252.447 265.95 252.377 264.59 252.377 263.03V251.06H254.897ZM270.665 272V251.06H283.865V253.25H273.185V260.3H282.965V262.49H273.185V272H270.665Z" fill="black"/>
<path opacity="0.5" d="M753.663 365.33C753.663 363.092 753.953 361.036 754.533 359.159C755.119 357.277 755.954 355.546 757.037 353.966H758.884C758.457 354.552 758.058 355.274 757.685 356.132C757.318 356.984 756.996 357.922 756.717 358.946C756.439 359.964 756.22 361.018 756.06 362.107C755.906 363.196 755.83 364.27 755.83 365.33C755.83 366.738 755.966 368.167 756.238 369.618C756.51 371.068 756.877 372.414 757.339 373.657C757.8 374.9 758.315 375.912 758.884 376.693H757.037C755.954 375.113 755.119 373.385 754.533 371.509C753.953 369.626 753.663 367.567 753.663 365.33ZM764.07 354.818V373H761.975V354.818H764.07ZM773.448 373.284C772.217 373.284 771.136 372.991 770.207 372.405C769.284 371.819 768.562 371 768.041 369.946C767.526 368.893 767.269 367.661 767.269 366.253C767.269 364.832 767.526 363.592 768.041 362.533C768.562 361.474 769.284 360.651 770.207 360.065C771.136 359.479 772.217 359.186 773.448 359.186C774.679 359.186 775.756 359.479 776.679 360.065C777.608 360.651 778.33 361.474 778.845 362.533C779.366 363.592 779.627 364.832 779.627 366.253C779.627 367.661 779.366 368.893 778.845 369.946C778.33 371 777.608 371.819 776.679 372.405C775.756 372.991 774.679 373.284 773.448 373.284ZM773.448 371.402C774.383 371.402 775.152 371.162 775.756 370.683C776.36 370.203 776.806 369.573 777.096 368.792C777.386 368.011 777.531 367.164 777.531 366.253C777.531 365.341 777.386 364.492 777.096 363.705C776.806 362.918 776.36 362.281 775.756 361.796C775.152 361.311 774.383 361.068 773.448 361.068C772.512 361.068 771.743 361.311 771.139 361.796C770.536 362.281 770.089 362.918 769.799 363.705C769.509 364.492 769.364 365.341 769.364 366.253C769.364 367.164 769.509 368.011 769.799 368.792C770.089 369.573 770.536 370.203 771.139 370.683C771.743 371.162 772.512 371.402 773.448 371.402ZM785.45 373L781.296 359.364H783.497L786.445 369.804H786.587L789.499 359.364H791.736L794.612 369.768H794.754L797.702 359.364H799.904L795.749 373H793.689L790.706 362.524H790.493L787.51 373H785.45ZM807.927 373.284C806.613 373.284 805.48 372.994 804.527 372.414C803.58 371.828 802.849 371.011 802.334 369.964C801.825 368.91 801.57 367.685 801.57 366.288C801.57 364.892 801.825 363.661 802.334 362.595C802.849 361.524 803.565 360.689 804.482 360.092C805.406 359.488 806.483 359.186 807.714 359.186C808.424 359.186 809.125 359.304 809.818 359.541C810.51 359.778 811.141 360.163 811.709 360.695C812.277 361.222 812.73 361.92 813.067 362.79C813.405 363.661 813.573 364.732 813.573 366.004V366.892H803.062V365.081H811.443C811.443 364.312 811.289 363.625 810.981 363.021C810.679 362.418 810.247 361.941 809.685 361.592C809.128 361.243 808.471 361.068 807.714 361.068C806.879 361.068 806.157 361.275 805.548 361.69C804.944 362.098 804.479 362.631 804.154 363.288C803.828 363.945 803.666 364.649 803.666 365.401V366.608C803.666 367.638 803.843 368.511 804.198 369.227C804.559 369.937 805.059 370.479 805.699 370.852C806.338 371.219 807.081 371.402 807.927 371.402C808.477 371.402 808.975 371.325 809.418 371.171C809.868 371.011 810.256 370.775 810.581 370.461C810.907 370.141 811.158 369.745 811.336 369.271L813.36 369.839C813.147 370.526 812.789 371.13 812.286 371.651C811.783 372.165 811.161 372.568 810.422 372.858C809.682 373.142 808.85 373.284 807.927 373.284ZM816.76 373V359.364H818.785V361.423H818.927C819.175 360.749 819.625 360.201 820.276 359.781C820.927 359.361 821.661 359.151 822.478 359.151C822.632 359.151 822.824 359.154 823.055 359.159C823.286 359.165 823.46 359.174 823.579 359.186V361.317C823.508 361.299 823.345 361.272 823.09 361.237C822.842 361.195 822.578 361.175 822.3 361.175C821.637 361.175 821.045 361.314 820.525 361.592C820.01 361.864 819.601 362.243 819.299 362.728C819.004 363.208 818.856 363.755 818.856 364.371V373H816.76ZM833.093 373V359.364H835.189V373H833.093ZM834.159 357.091C833.75 357.091 833.398 356.952 833.102 356.674C832.812 356.395 832.667 356.061 832.667 355.67C832.667 355.28 832.812 354.945 833.102 354.667C833.398 354.389 833.75 354.25 834.159 354.25C834.567 354.25 834.916 354.389 835.206 354.667C835.502 354.945 835.65 355.28 835.65 355.67C835.65 356.061 835.502 356.395 835.206 356.674C834.916 356.952 834.567 357.091 834.159 357.091ZM848.685 362.418L846.803 362.95C846.685 362.637 846.51 362.332 846.279 362.036C846.054 361.734 845.747 361.485 845.356 361.29C844.965 361.095 844.465 360.997 843.856 360.997C843.021 360.997 842.326 361.19 841.769 361.574C841.219 361.953 840.944 362.435 840.944 363.021C840.944 363.542 841.133 363.953 841.512 364.255C841.891 364.557 842.482 364.809 843.287 365.01L845.312 365.507C846.531 365.803 847.439 366.256 848.037 366.865C848.635 367.469 848.934 368.247 848.934 369.2C848.934 369.982 848.709 370.68 848.259 371.295C847.815 371.911 847.194 372.396 846.395 372.751C845.596 373.107 844.666 373.284 843.607 373.284C842.216 373.284 841.065 372.982 840.153 372.379C839.242 371.775 838.665 370.893 838.422 369.733L840.411 369.236C840.6 369.97 840.958 370.52 841.485 370.887C842.018 371.254 842.713 371.438 843.571 371.438C844.548 371.438 845.323 371.23 845.897 370.816C846.477 370.396 846.767 369.893 846.767 369.307C846.767 368.833 846.602 368.437 846.27 368.117C845.939 367.792 845.43 367.549 844.743 367.389L842.471 366.857C841.222 366.561 840.304 366.102 839.718 365.48C839.138 364.853 838.848 364.069 838.848 363.128C838.848 362.358 839.064 361.678 839.497 361.086C839.935 360.494 840.529 360.029 841.281 359.692C842.039 359.355 842.897 359.186 843.856 359.186C845.205 359.186 846.264 359.482 847.034 360.074C847.809 360.666 848.36 361.447 848.685 362.418ZM859.403 373V354.818H861.498V361.53H861.676C861.829 361.293 862.043 360.991 862.315 360.624C862.593 360.251 862.99 359.92 863.504 359.63C864.025 359.334 864.73 359.186 865.617 359.186C866.766 359.186 867.778 359.473 868.654 360.047C869.53 360.621 870.213 361.435 870.704 362.489C871.196 363.542 871.441 364.785 871.441 366.217C871.441 367.661 871.196 368.913 870.704 369.973C870.213 371.026 869.532 371.843 868.662 372.423C867.792 372.997 866.789 373.284 865.653 373.284C864.777 373.284 864.076 373.139 863.549 372.849C863.022 372.553 862.617 372.219 862.333 371.846C862.048 371.467 861.829 371.153 861.676 370.905H861.427V373H859.403ZM861.463 366.182C861.463 367.212 861.613 368.12 861.915 368.907C862.217 369.689 862.658 370.301 863.238 370.745C863.818 371.183 864.528 371.402 865.369 371.402C866.245 371.402 866.976 371.171 867.562 370.71C868.153 370.242 868.597 369.615 868.893 368.827C869.195 368.034 869.346 367.152 869.346 366.182C869.346 365.223 869.198 364.359 868.902 363.589C868.612 362.814 868.171 362.202 867.579 361.752C866.993 361.296 866.257 361.068 865.369 361.068C864.517 361.068 863.8 361.284 863.22 361.716C862.64 362.142 862.202 362.74 861.906 363.51C861.61 364.273 861.463 365.164 861.463 366.182ZM880.363 373.284C879.05 373.284 877.916 372.994 876.963 372.414C876.016 371.828 875.285 371.011 874.77 369.964C874.261 368.91 874.007 367.685 874.007 366.288C874.007 364.892 874.261 363.661 874.77 362.595C875.285 361.524 876.001 360.689 876.919 360.092C877.842 359.488 878.919 359.186 880.15 359.186C880.861 359.186 881.562 359.304 882.254 359.541C882.947 359.778 883.577 360.163 884.145 360.695C884.714 361.222 885.166 361.92 885.504 362.79C885.841 363.661 886.01 364.732 886.01 366.004V366.892H875.498V365.081H883.879C883.879 364.312 883.725 363.625 883.417 363.021C883.116 362.418 882.684 361.941 882.121 361.592C881.565 361.243 880.908 361.068 880.15 361.068C879.316 361.068 878.594 361.275 877.984 361.69C877.381 362.098 876.916 362.631 876.59 363.288C876.265 363.945 876.102 364.649 876.102 365.401V366.608C876.102 367.638 876.28 368.511 876.635 369.227C876.996 369.937 877.496 370.479 878.135 370.852C878.774 371.219 879.517 371.402 880.363 371.402C880.914 371.402 881.411 371.325 881.855 371.171C882.305 371.011 882.692 370.775 883.018 370.461C883.343 370.141 883.595 369.745 883.773 369.271L885.797 369.839C885.584 370.526 885.226 371.13 884.722 371.651C884.219 372.165 883.598 372.568 882.858 372.858C882.118 373.142 881.287 373.284 880.363 373.284ZM895.127 359.364V361.139H888.061V359.364H895.127ZM890.12 356.097H892.215V369.094C892.215 369.686 892.301 370.129 892.473 370.425C892.65 370.715 892.875 370.911 893.148 371.011C893.426 371.106 893.719 371.153 894.026 371.153C894.257 371.153 894.447 371.142 894.595 371.118C894.743 371.088 894.861 371.065 894.95 371.047L895.376 372.929C895.234 372.982 895.036 373.036 894.781 373.089C894.527 373.148 894.204 373.178 893.813 373.178C893.222 373.178 892.642 373.05 892.073 372.796C891.511 372.541 891.044 372.154 890.671 371.633C890.304 371.112 890.12 370.455 890.12 369.662V356.097ZM904.209 359.364V361.139H897.143V359.364H904.209ZM899.202 356.097H901.297V369.094C901.297 369.686 901.383 370.129 901.555 370.425C901.732 370.715 901.957 370.911 902.23 371.011C902.508 371.106 902.801 371.153 903.108 371.153C903.339 371.153 903.529 371.142 903.677 371.118C903.825 371.088 903.943 371.065 904.032 371.047L904.458 372.929C904.316 372.982 904.118 373.036 903.863 373.089C903.609 373.148 903.286 373.178 902.895 373.178C902.304 373.178 901.724 373.05 901.155 372.796C900.593 372.541 900.126 372.154 899.753 371.633C899.386 371.112 899.202 370.455 899.202 369.662V356.097ZM912.932 373.284C911.618 373.284 910.484 372.994 909.532 372.414C908.585 371.828 907.854 371.011 907.339 369.964C906.83 368.91 906.575 367.685 906.575 366.288C906.575 364.892 906.83 363.661 907.339 362.595C907.854 361.524 908.57 360.689 909.487 360.092C910.411 359.488 911.488 359.186 912.719 359.186C913.429 359.186 914.13 359.304 914.823 359.541C915.515 359.778 916.146 360.163 916.714 360.695C917.282 361.222 917.735 361.92 918.072 362.79C918.409 363.661 918.578 364.732 918.578 366.004V366.892H908.067V365.081H916.447C916.447 364.312 916.294 363.625 915.986 363.021C915.684 362.418 915.252 361.941 914.69 361.592C914.133 361.243 913.476 361.068 912.719 361.068C911.884 361.068 911.162 361.275 910.553 361.69C909.949 362.098 909.484 362.631 909.159 363.288C908.833 363.945 908.67 364.649 908.67 365.401V366.608C908.67 367.638 908.848 368.511 909.203 369.227C909.564 369.937 910.064 370.479 910.703 370.852C911.343 371.219 912.085 371.402 912.932 371.402C913.482 371.402 913.979 371.325 914.423 371.171C914.873 371.011 915.261 370.775 915.586 370.461C915.912 370.141 916.163 369.745 916.341 369.271L918.365 369.839C918.152 370.526 917.794 371.13 917.291 371.651C916.788 372.165 916.166 372.568 915.426 372.858C914.687 373.142 913.855 373.284 912.932 373.284ZM921.765 373V359.364H923.789V361.423H923.931C924.18 360.749 924.63 360.201 925.281 359.781C925.932 359.361 926.666 359.151 927.483 359.151C927.636 359.151 927.829 359.154 928.06 359.159C928.29 359.165 928.465 359.174 928.583 359.186V361.317C928.512 361.299 928.35 361.272 928.095 361.237C927.847 361.195 927.583 361.175 927.305 361.175C926.642 361.175 926.05 361.314 925.529 361.592C925.015 361.864 924.606 362.243 924.304 362.728C924.008 363.208 923.86 363.755 923.86 364.371V373H921.765ZM935.541 365.33C935.541 367.567 935.248 369.626 934.663 371.509C934.083 373.385 933.251 375.113 932.168 376.693H930.321C930.747 376.107 931.144 375.385 931.511 374.527C931.884 373.675 932.209 372.74 932.487 371.722C932.766 370.698 932.982 369.641 933.136 368.552C933.295 367.457 933.375 366.383 933.375 365.33C933.375 363.921 933.239 362.492 932.967 361.042C932.695 359.592 932.328 358.245 931.866 357.002C931.404 355.759 930.889 354.747 930.321 353.966H932.168C933.251 355.546 934.083 357.277 934.663 359.159C935.248 361.036 935.541 363.092 935.541 365.33Z" fill="black"/>
</svg>
